<!--
 ~ Copyright (c) 2025, WSO2 LLC. (https://www.wso2.com) All Rights Reserved.
 ~
 ~ WSO2 LLC. licenses this file to you under the Apache License,
 ~ Version 2.0 (the "License"); you may not use this file except
 ~ in compliance with the License.
 ~ You may obtain a copy of the License at
 ~
 ~     http://www.apache.org/licenses/LICENSE-2.0
 ~
 ~ Unless required by applicable law or agreed to in writing,
 ~ software distributed under the License is distributed on an
 ~ "AS IS" BASIS, WITHOUT WARRANTIES OR CONDITIONS OF ANY
 ~ KIND, either express or implied. See the License for the
 ~ specific language governing permissions and limitations
 ~ under the License.
-->
<svg xmlns="http://www.w3.org/2000/svg" width="24" height="24" viewBox="0 0 24 24">
	<g transform="translate(3 3) scale(0.75)">
		<path fill="currentColor" d="M23.035 9.601h-7.677a.956.956 0 0 1-.962-.962V.962a.956.956 0 0 0-.962-.956H10.56a.956.956 0 0 0-.962.956V8.64a.956.956 0 0 1-.962.962H5.762a.956.956 0 0 1-.961-.962V.962A.956.956 0 0 0 3.839 0H.959a.956.956 0 0 0-.956.962v22.076A.956.956 0 0 0 .965 24h22.07a.956.956 0 0 0 .962-.962V10.58a.956.956 0 0 0-.962-.98zm-3.86 8.152a1.437 1.437 0 0 1-1.437 1.443h-1.924a1.437 1.437 0 0 1-1.436-1.443v-1.917a1.437 1.437 0 0 1 1.436-1.443h1.924a1.437 1.437 0 0 1 1.437 1.443z" />
	</g>
</svg>
